<?xml version="1.0" encoding="utf-8"?>
<svg version="1.1" id="Layer_1" xmlns="http://www.w3.org/2000/svg" xmlns:xlink="http://www.w3.org/1999/xlink" x="0px" y="0px"
	 viewBox="0 0 209.3 53.8" style="enable-background:new 0 0 209.3 53.8;" xml:space="preserve">
<path d="M64.5,1.3L55,10.8l9.7,10.8h-3.8l-0.1-0.1L53,12.7l-0.2,0.2v8.6H50V1.3h2.8v8l7.9-8L64.5,1.3 M66.9,0.3h-6.6L60,0.6
	l-6.2,6.2V0.3H49v22.2h4.8V15l6.3,7.1l0.1,0.1l0.3,0.3H67l-1.5-1.7l-9.1-10L65.2,2C65.2,2,66.9,0.3,66.9,0.3z M81.9,1.3V4h-8v5.2
	h7.8v2.7h-7.8v7h8v2.7H71.1V1.3L81.9,1.3 M82.9,0.3H70.1v22.2h12.8v-4.7h-8v-5h7.8V8.2h-7.8V5h8C82.9,5,82.9,0.3,82.9,0.3z
	 M99.8,1.3V4h-8v5.2h7.8v2.7h-7.8v7h8v2.7H89V1.3H99.8 M100.8,0.3H88v22.2h12.8v-4.7h-8v-5h7.8V8.2h-7.8V5h8
	C100.8,5,100.8,0.3,100.8,0.3z M112.6,1c1.3,0,2.3,0.3,3.3,0.9c0.8,0.5,1.5,1.4,2,2.3l0.1,0.2L115.8,6l-0.2-0.3
	c-0.3-0.5-0.7-1.1-1.1-1.4s-1-0.6-2-0.6c-1.8,0-3,1.1-3,2.7c0,0.7,0.2,1,0.6,1.5c0.6,0.6,1.2,0.9,2,1.2l1.9,0.8
	c1.3,0.6,2.3,1.1,3.1,1.9c1,1,1.5,2.2,1.5,3.8c0,3.7-2.7,6.3-6.5,6.3c-1.9,0-3.3-0.5-4.5-1.7c-0.9-0.9-1.6-2.2-1.9-3.6l-0.1-0.3
	l2.7-0.8v0.3c0.1,0.9,0.5,1.7,1.1,2.3c0.7,0.7,1.5,1,2.6,1c2.5,0,3.6-1.8,3.6-3.6c0-0.9-0.3-1.5-0.9-2.1c-0.5-0.5-1.3-0.9-2.3-1.3
	l-1.9-0.9c-0.7-0.3-1.7-0.8-2.5-1.6c-1-1-1.4-2-1.4-3.4C106.8,3.2,109.1,1,112.6,1 M112.6,0c-3.9,0-6.8,2.7-6.8,6.4
	c0,1.7,0.5,3,1.8,4.1c1,0.9,2,1.4,2.8,1.8l1.9,0.9c0.9,0.4,1.6,0.7,2,1.1c0.4,0.4,0.6,0.8,0.6,1.3c0,1.2-0.7,2.6-2.6,2.6
	c-0.8,0-1.4-0.2-1.9-0.7c-0.4-0.4-0.7-1.1-0.8-1.8v-0.3l-0.2-1.1l-1.1,0.3l-2.7,0.8l-0.9,0.3l0.2,0.9l0.1,0.3
	c0.4,1.6,1.2,3.1,2.2,4.1c1.3,1.3,3,2,5.2,2c4.3,0,7.5-3.1,7.5-7.3c0-1.8-0.6-3.3-1.8-4.5c-0.9-0.9-2-1.5-3.4-2.1l-1.9-0.8
	c-0.7-0.3-1.2-0.5-1.7-1c-0.3-0.3-0.3-0.4-0.3-0.8c0-1.1,0.8-1.7,2-1.7c0.7,0,1.2,0.2,1.4,0.4c0.3,0.2,0.6,0.6,0.8,1l0.2,0.3l0.5,1
	l0.9-0.6l2.3-1.5l0.7-0.5L118.9,4l-0.1-0.2c-0.6-1.1-1.4-2-2.3-2.7C115.3,0.3,114.1,0,112.6,0z M135.9,1.3c2.2,0,4.9,0.3,7.4,2.4
	c1.3,1.1,3.5,3.5,3.5,7.8c0,3.2-1.2,5.7-3.5,7.8c-2,1.7-4,2.3-7.4,2.3h-4.3V1.3L135.9,1.3 M134.4,18.9h1.6c1.6,0,3.6-0.2,5.4-1.7
	c1.2-1,2.5-2.8,2.5-5.7c0-4.5-3.1-7.4-7.9-7.4h-1.6V18.9 M135.9,0.3h-5.3v22.2h5.3c3.6,0,5.9-0.7,8-2.6c2.6-2.2,3.9-5,3.9-8.5
	c0-4.6-2.4-7.3-3.8-8.5C141.2,0.6,138.2,0.3,135.9,0.3L135.9,0.3z M135.4,5h0.6c4.3,0,6.9,2.5,6.9,6.4c0,2.6-1.2,4.1-2.2,5
	c-1.5,1.3-3.3,1.5-4.8,1.5h-0.6V5H135.4z M164.6,1.3V4h-8v5.2h7.8v2.7h-7.8v7h8v2.7h-10.8V1.3H164.6 M165.6,0.3h-12.8v22.2h12.8
	v-4.7h-8v-5h7.8V8.2h-7.8V5h8C165.6,5,165.6,0.3,165.6,0.3z M4.8,32.2c0.8,0,3.1,0,4.7,1.3c0.7,0.5,1.9,1.8,1.9,4.3
	c0,1.6-0.5,2.8-1.6,3.7c2.5,0.9,3.4,3.2,3.4,5.1c0,2.1-1.1,3.7-2.1,4.5c-1.6,1.3-3.4,1.4-4.9,1.4H1V32.2H4.8 M3.8,40.8h1.3
	c1.6,0,3.5-0.5,3.5-3c0-2.7-2.4-3-3.5-3H3.8L3.8,40.8 M3.8,49.7H6c1.1,0,2.4-0.1,3.2-0.8c0.7-0.5,1.2-1.5,1.2-2.5
	c0-1.6-1.1-2.4-1.5-2.6c-0.7-0.4-1.7-0.6-3.2-0.6H3.8V49.7 M4.8,31.2H0v22.2h6.2c1.8,0,3.8-0.2,5.5-1.6c1.2-0.9,2.5-2.8,2.5-5.3
	c0-1.8-0.8-4-2.8-5.4c0.6-1,1-2.1,1-3.4c0-2.9-1.4-4.4-2.3-5.1C8.2,31.2,5.7,31.2,4.8,31.2z M4.8,35.9h0.4c2.5,0,2.5,1.5,2.5,2
	c0,0.6,0,2-2.5,2H4.8V35.9z M4.8,44.3h0.9c1.3,0,2.2,0.1,2.7,0.4c0.4,0.2,1,0.7,1,1.7c0,0.7-0.3,1.3-0.8,1.7C8,48.7,6.9,48.7,6,48.7
	H4.8V44.3z M28.9,31.9c5.9,0,10.5,4.6,10.5,10.4c0,5.9-4.6,10.4-10.5,10.4s-10.5-4.6-10.5-10.4C18.4,36.4,23,31.9,28.9,31.9
	 M28.9,50.1c4.2,0,7.7-3.5,7.7-7.8s-3.4-7.8-7.7-7.8c-4.2,0-7.7,3.5-7.7,7.8S24.7,50.1,28.9,50.1 M28.9,30.9
	c-6.4,0-11.5,5-11.5,11.4s5.1,11.4,11.5,11.4s11.5-5,11.5-11.4S35.3,30.9,28.9,30.9z M28.9,49.1c-3.7,0-6.7-3-6.7-6.8
	c0-3.7,3-6.8,6.7-6.8s6.7,3,6.7,6.8C35.5,46,32.5,49.1,28.9,49.1z M56.4,32.2v2.7h-8v5.2h7.8v2.7h-7.8v7h8v2.7H45.6V32.2L56.4,32.2
	 M57.4,31.2H44.6v22.2h12.8v-4.7h-8v-5h7.8V39h-7.8v-3.2h8C57.4,35.8,57.4,31.2,57.4,31.2z M78,32.2l-9.5,9.5l9.7,10.8h-3.8
	l-0.1-0.1l-7.8-8.7l-0.2,0.2v8.6h-2.8V32.2h2.8v8l7.9-8H78 M80.4,31.2h-6.6l-0.3,0.3l-6.2,6.2v-6.5h-4.8v22.2h4.8v-7.5l6.3,7.1
	l0.1,0.1l0.3,0.3h6.6L79,51.7l-9.1-10l8.8-8.8L80.4,31.2z M100.5,32.2v20.2h-2.8v-9.6h-9.4v9.6h-2.8V32.2h2.8v8h9.4v-8H100.5
	 M101.5,31.2h-4.8v8h-7.4v-8h-4.8v22.2h4.8v-9.6h7.4v9.6h4.8V31.2z M117.2,31.9c5.9,0,10.5,4.6,10.5,10.4c0,5.9-4.6,10.4-10.5,10.4
	s-10.5-4.6-10.5-10.4C106.7,36.4,111.3,31.9,117.2,31.9 M117.2,50.1c4.2,0,7.7-3.5,7.7-7.8s-3.4-7.8-7.7-7.8c-4.2,0-7.7,3.5-7.7,7.8
	C109.6,46.6,113,50.1,117.2,50.1 M117.2,30.9c-6.4,0-11.5,5-11.5,11.4s5.1,11.4,11.5,11.4s11.5-5,11.5-11.4S123.7,30.9,117.2,30.9z
	 M117.2,49.1c-3.7,0-6.7-3-6.7-6.8c0-3.7,3-6.8,6.7-6.8s6.7,3,6.7,6.8C123.9,46,120.9,49.1,117.2,49.1z M148.5,32.2v12.9
	c0,1.6-0.2,3.3-1.3,4.9c-1.3,1.8-3.5,2.8-6,2.8s-4.7-1-6-2.8c-1.1-1.6-1.3-3.3-1.3-4.9V32.2h2.8v12.3c0,1.6,0,3.3,1.4,4.5
	c0.7,0.6,2,1,3,1s2.3-0.4,3-1c1.4-1.2,1.4-2.9,1.4-4.5V32.2L148.5,32.2 M149.5,31.2h-4.8v13.3c0,1.5,0,2.8-1.1,3.8
	c-0.5,0.5-1.6,0.8-2.4,0.8c-0.8,0-1.9-0.4-2.4-0.8c-1.1-0.9-1.1-2.2-1.1-3.8V31.2H133v13.9c0,1.7,0.2,3.7,1.5,5.5
	c1.5,2,3.9,3.2,6.8,3.2c2.8,0,5.3-1.2,6.8-3.2c1.3-1.8,1.5-3.8,1.5-5.5V31.2H149.5L149.5,31.2z M160.1,32.2c2.2,0,4.9,0.3,7.4,2.4
	c1.3,1.1,3.5,3.5,3.5,7.8c0,3.2-1.2,5.7-3.5,7.8c-2,1.7-4,2.3-7.4,2.3h-4.3V32.2H160.1 M158.6,49.7h1.6c1.6,0,3.6-0.2,5.4-1.7
	c1.2-1,2.5-2.8,2.5-5.7c0-4.5-3.1-7.4-7.9-7.4h-1.6V49.7 M160.1,31.2h-5.3v22.2h5.3c3.6,0,5.9-0.7,8-2.6c2.6-2.2,3.9-5,3.9-8.5
	c0-4.6-2.4-7.3-3.8-8.5C165.5,31.5,162.5,31.2,160.1,31.2L160.1,31.2z M159.6,35.9h0.6c4.3,0,6.9,2.5,6.9,6.4c0,2.6-1.2,4.1-2.2,5
	c-1.5,1.3-3.3,1.5-4.8,1.5h-0.6V35.9C159.5,35.9,159.6,35.9,159.6,35.9z M188,32.2v2.7h-8v5.2h7.8v2.7H180v7h8v2.7h-10.8V32.2
	L188,32.2 M189,31.2h-12.8v22.2H189v-4.7h-8v-5h7.8V39H181v-3.2h8C189,35.8,189,31.2,189,31.2z M198.6,32.2c1.5,0,3.4,0.1,4.9,1.1
	c1.4,0.9,2.3,2.7,2.3,4.6c0,3-1.9,5.2-4.7,5.7l6.3,8.8H204l-6-8.6h-0.1v8.6h-2.8V32.2H198.6 M197.9,41.3h1.1c2.6,0,4-1.2,4-3.3
	c0-1.2-0.4-2.1-1.4-2.6c-0.8-0.5-1.8-0.5-2.7-0.5h-1L197.9,41.3 M198.6,31.2h-4.4v22.2h4.8v-6.5l4.2,6.1l0.3,0.4h5.8l-1.1-1.6
	l-5.4-7.6c2.5-1,4-3.3,4-6.2c0-2.3-1-4.3-2.7-5.4C202.3,31.3,200.2,31.2,198.6,31.2L198.6,31.2z M198.9,35.9c0.7,0,1.6,0,2.2,0.4
	c0.6,0.4,0.9,0.9,0.9,1.7c0,1.5-1,2.3-3,2.3h-0.1L198.9,35.9L198.9,35.9z"/>
<path d="M116.7,31.9h1v20.9h-1V31.9z M28.4,31.9h1v20.8h-1V31.9z"/>
</svg>
